<svg width="20" height="20" viewBox="0 0 20 20" fill="none" xmlns="http://www.w3.org/2000/svg">
<path d="M12.9166 10.9583H11.1083C9.62496 10.9583 8.41663 9.75833 8.41663 8.26666V6.45833C8.41663 6.11666 8.14163 5.83333 7.79163 5.83333H5.14996C3.22496 5.83333 1.66663 7.08333 1.66663 9.31666V14.85C1.66663 17.0833 3.22496 18.3333 5.14996 18.3333H10.0583C11.9833 18.3333 13.5416 17.0833 13.5416 14.85V11.5833C13.5416 11.2333 13.2583 10.9583 12.9166 10.9583Z" fill="black"/>
<path d="M14.85 1.66666H13.2083H12.3H9.94168C8.05834 1.66666 6.53334 2.86666 6.46667 5.00832C6.51667 5.00832 6.55834 4.99999 6.60834 4.99999H8.96667H9.87501H11.5167C13.4417 4.99999 15 6.24999 15 8.48332V10.125V12.3833V14.025C15 14.075 14.9917 14.1167 14.9917 14.1583C16.85 14.1 18.3333 12.8667 18.3333 10.6917V9.04999V6.79166V5.14999C18.3333 2.91666 16.775 1.66666 14.85 1.66666Z" fill="black"/>
<path d="M9.98332 5.95832C9.72499 5.69999 9.28333 5.87499 9.28333 6.23332V8.41666C9.28333 9.33332 10.0583 10.0833 11.0083 10.0833C11.6 10.0917 12.425 10.0917 13.1333 10.0917C13.4917 10.0917 13.675 9.67499 13.425 9.42499C12.5167 8.51666 10.9 6.89166 9.98332 5.95832Z" fill="black"/>
</svg>
