<svg width="16" height="16" viewBox="0 0 16 16" fill="none" xmlns="http://www.w3.org/2000/svg">
<path d="M0.94872 11.4436L3.64868 11.67C4.04932 11.7049 4.41512 12.0707 4.45867 12.48L4.67641 15.1713C4.84189 15.6852 5.43414 15.929 5.92187 15.6852L7.0367 15.1277C7.30669 14.9971 7.53314 14.6313 7.53314 14.3352L7.54185 11.4697C7.54185 11.2607 7.66379 10.982 7.80314 10.8426L9.41441 9.23137C9.78021 8.86557 10.2244 8.96138 10.4247 9.4404L12.0882 13.6123C12.3582 14.3003 13.0202 14.4397 13.5427 13.9171L14.3527 13.1071C14.7708 12.6891 14.945 11.8878 14.7185 11.3304L12.7676 6.41819C12.6805 6.20916 12.7502 5.91303 12.9069 5.75626L14.7098 3.95338C15.3021 3.36113 15.5633 2.22889 15.3108 1.43632C15.215 1.14891 14.9972 0.931169 14.7098 0.835364C13.9172 0.565368 12.785 0.844073 12.1928 1.43632L10.3899 3.2392C10.2331 3.39597 9.92827 3.45694 9.72795 3.37855L4.81576 1.42761C4.26706 1.20987 3.45707 1.37536 3.03901 1.79341L2.22903 2.6034C1.70645 3.12598 1.83709 3.77919 2.53386 4.0579L6.70574 5.72142C7.18476 5.90432 7.28057 6.36593 6.91476 6.73173L5.3035 8.343C5.15543 8.49106 4.86802 8.60428 4.67641 8.60428L1.79355 8.57816C1.49742 8.57816 1.13162 8.8046 1.00098 9.0746L0.443567 10.1894C0.19099 10.6859 0.426147 11.2694 0.94872 11.4436Z" fill="black"/>
</svg>
