<svg width="16" height="16" viewBox="0 0 16 16" fill="none" xmlns="http://www.w3.org/2000/svg">
<path d="M13.3333 4.50001C14.3459 4.50001 15.1667 3.6792 15.1667 2.66668C15.1667 1.65415 14.3459 0.833344 13.3333 0.833344C12.3208 0.833344 11.5 1.65415 11.5 2.66668C11.5 3.6792 12.3208 4.50001 13.3333 4.50001Z" fill="black"/>
<path d="M12.6934 5.43334C11.6467 5.20668 10.7934 4.35334 10.5667 3.30668C10.48 2.90001 10.4734 2.50668 10.5467 2.13334C10.6334 1.72001 10.3267 1.33334 9.90004 1.33334H4.66671C2.82671 1.33334 1.33337 2.82668 1.33337 4.66668V9.30001C1.33337 11.14 2.82671 12.6333 4.66671 12.6333H5.66671C5.85337 12.6333 6.09337 12.7533 6.20004 12.9L7.20004 14.2267C7.64004 14.8133 8.36004 14.8133 8.80004 14.2267L9.80004 12.9C9.92671 12.7333 10.12 12.6333 10.3334 12.6333H11.34C13.18 12.6333 14.6667 11.1467 14.6667 9.30668V6.10001C14.6667 5.68001 14.28 5.37334 13.8667 5.45334C13.4934 5.52001 13.1 5.52001 12.6934 5.43334ZM5.33337 8.00001C4.96004 8.00001 4.66671 7.70001 4.66671 7.33334C4.66671 6.96668 4.96004 6.66668 5.33337 6.66668C5.70004 6.66668 6.00004 6.96668 6.00004 7.33334C6.00004 7.70001 5.70671 8.00001 5.33337 8.00001ZM8.00004 8.00001C7.62671 8.00001 7.33337 7.70001 7.33337 7.33334C7.33337 6.96668 7.62671 6.66668 8.00004 6.66668C8.36671 6.66668 8.66671 6.96668 8.66671 7.33334C8.66671 7.70001 8.37337 8.00001 8.00004 8.00001ZM10.6667 8.00001C10.2934 8.00001 10 7.70001 10 7.33334C10 6.96668 10.2934 6.66668 10.6667 6.66668C11.0334 6.66668 11.3334 6.96668 11.3334 7.33334C11.3334 7.70001 11.04 8.00001 10.6667 8.00001Z" fill="black"/>
</svg>
