<svg width="16" height="16" viewBox="0 0 16 16" fill="none" xmlns="http://www.w3.org/2000/svg">
<path d="M11.6867 5.18001C11.64 5.17334 11.5934 5.17334 11.5467 5.18001C10.5134 5.14668 9.69336 4.30001 9.69336 3.26001C9.69336 2.20001 10.5534 1.33334 11.62 1.33334C12.68 1.33334 13.5467 2.19334 13.5467 3.26001C13.54 4.30001 12.72 5.14668 11.6867 5.18001Z" fill="black"/>
<path d="M13.86 9.79999C13.1133 10.3 12.0666 10.4867 11.1 10.36C11.3533 9.81333 11.4866 9.20666 11.4933 8.56666C11.4933 7.89999 11.3467 7.26666 11.0667 6.71333C12.0533 6.57999 13.1 6.76666 13.8533 7.26666C14.9067 7.95999 14.9067 9.09999 13.86 9.79999Z" fill="black"/>
<path d="M4.29327 5.18001C4.33994 5.17334 4.38661 5.17334 4.43327 5.18001C5.46661 5.14668 6.28661 4.30001 6.28661 3.26001C6.28661 2.19334 5.42661 1.33334 4.35994 1.33334C3.29994 1.33334 2.43994 2.19334 2.43994 3.26001C2.43994 4.30001 3.25994 5.14668 4.29327 5.18001Z" fill="black"/>
<path d="M4.36662 8.56666C4.36662 9.21333 4.50662 9.82666 4.75996 10.38C3.81996 10.48 2.83996 10.28 2.11996 9.80666C1.06662 9.10666 1.06662 7.96666 2.11996 7.26666C2.83329 6.78666 3.83996 6.59333 4.78662 6.7C4.51329 7.26 4.36662 7.89333 4.36662 8.56666Z" fill="black"/>
<path d="M8.07995 10.58C8.02662 10.5733 7.96662 10.5733 7.90662 10.58C6.67995 10.54 5.69995 9.53333 5.69995 8.29333C5.70662 7.02667 6.72662 6 7.99995 6C9.26662 6 10.2933 7.02667 10.2933 8.29333C10.2866 9.53333 9.31328 10.54 8.07995 10.58Z" fill="black"/>
<path d="M5.91333 11.96C4.90666 12.6333 4.90666 13.74 5.91333 14.4067C7.05999 15.1733 8.93999 15.1733 10.0867 14.4067C11.0933 13.7333 11.0933 12.6267 10.0867 11.96C8.94666 11.1933 7.06666 11.1933 5.91333 11.96Z" fill="black"/>
</svg>
