<svg width="16" height="16" viewBox="0 0 16 16" fill="none" xmlns="http://www.w3.org/2000/svg">
<path d="M11.5933 10.4467L8.89994 8H7.09328L4.39994 10.4467C3.64661 11.1267 3.39994 12.1733 3.76661 13.12C4.13328 14.06 5.02661 14.6667 6.03328 14.6667H9.95994C10.9733 14.6667 11.8599 14.06 12.2266 13.12C12.5933 12.1733 12.3466 11.1267 11.5933 10.4467ZM9.21328 12.0933H6.78661C6.53328 12.0933 6.33328 11.8867 6.33328 11.64C6.33328 11.3933 6.53994 11.1867 6.78661 11.1867H9.21328C9.46661 11.1867 9.66661 11.3933 9.66661 11.64C9.66661 11.8867 9.45994 12.0933 9.21328 12.0933Z" fill="black"/>
<path d="M12.2334 2.88001C11.8667 1.94001 10.9734 1.33334 9.96669 1.33334H6.03336C5.02669 1.33334 4.13336 1.94001 3.76669 2.88001C3.40669 3.82668 3.65336 4.87334 4.40669 5.55334L7.10003 8.00001H8.90669L11.6 5.55334C12.3467 4.87334 12.5934 3.82668 12.2334 2.88001ZM9.21336 4.82001H6.78669C6.53336 4.82001 6.33336 4.61334 6.33336 4.36668C6.33336 4.12001 6.54003 3.91334 6.78669 3.91334H9.21336C9.46669 3.91334 9.66669 4.12001 9.66669 4.36668C9.66669 4.61334 9.46003 4.82001 9.21336 4.82001Z" fill="black"/>
</svg>
