<svg width="128" height="128" viewBox="0 0 128 128" fill="none" xmlns="http://www.w3.org/2000/svg">
<g clip-path="url(#clip0_3_2826)">
<path d="M56.0533 59.84L44.32 12.7467C44.0533 11.52 42.9333 10.6667 41.6533 10.6667C24.5333 10.6667 10.6667 24.5334 10.6667 41.6534V72.0534C10.6667 73.8667 12.4267 75.2 14.1867 74.6667L54.1867 63.0934C55.5733 62.72 56.4267 61.28 56.0533 59.84Z" fill="black"/>
<path d="M59.3067 72.96C58.9333 71.4667 57.3867 70.56 55.8933 70.9867L12.64 83.5733C11.4667 83.9467 10.6667 85.0133 10.6667 86.24V86.3467C10.6667 103.467 24.5333 117.333 41.6533 117.333H66.8267C68.5867 117.333 69.92 115.68 69.4933 113.92L59.3067 72.96Z" fill="black"/>
<path d="M86.3467 10.6667H55.68C53.92 10.6667 52.5867 12.32 53.0133 14.08L78.2933 115.253C78.6133 116.48 79.68 117.333 80.96 117.333H86.2933C103.467 117.333 117.333 103.467 117.333 86.3467V41.6534C117.333 24.5334 103.467 10.6667 86.3467 10.6667Z" fill="black"/>
</g>
<defs>
<clipPath id="clip0_3_2826">
<rect width="128" height="128" fill="white"/>
</clipPath>
</defs>
</svg>
